<?xml version="1.0" encoding="UTF-8"?>
<svg id="Calque_2" data-name="Calque 2" xmlns="http://www.w3.org/2000/svg" viewBox="0 0 631.41 576.4">
  <g id="Calque_1-2" data-name="Calque 1">
    <g>
      <g>
        <path d="M459.61,203.45l-29.64-49.87c-2.86-4.81-2.86-10.78,0-15.58l29.64-49.87c3.07-5.17,2.46-11.86-1.87-16.43-2.63-2.78-6.39-4.21-10.22-4.21h-53.47v156.62h53.47c3.83,0,7.58-1.43,10.22-4.21,4.33-4.57,4.95-11.27,1.88-16.44Z"/>
        <path d="M183.96,67.48c-3.83,0-7.58,1.43-10.22,4.21-4.33,4.57-4.95,11.27-1.88,16.44l29.64,49.87c2.86,4.81,2.86,10.78,0,15.58l-29.64,49.87c-3.07,5.17-2.46,11.86,1.87,16.43,2.63,2.78,6.39,4.21,10.22,4.21h53.47V67.48h-53.47Z"/>
        <path d="M237.43,277.56c0,3.83,1.43,7.58,4.21,10.22,4.57,4.33,11.27,4.95,16.44,1.88l49.87-29.64c4.81-2.86,10.78-2.86,15.58,0l49.87,29.64c5.17,3.07,11.86,2.46,16.43-1.87,2.78-2.63,4.21-6.39,4.21-10.22v-53.47h-156.62v53.47Z"/>
        <path d="M394.05,14.01c0-3.83-1.43-7.58-4.21-10.22-4.57-4.33-11.27-4.95-16.44-1.87l-49.87,29.64c-4.81,2.86-10.78,2.86-15.58,0L258.08,1.92c-5.17-3.07-11.86-2.46-16.43,1.87-2.78,2.63-4.21,6.39-4.21,10.22v53.47h156.62V14.01Z"/>
      </g>
      <g>
        <path d="M400.62,349.55c-5.08-2.89-11.32-2.83-16.34.15l-59.31,35.25c-5.72,3.4-12.82,3.4-18.53,0l-59.31-35.25c-5.02-2.98-11.26-3.04-16.34-.15-5.08,2.89-8.21,8.28-8.21,14.12v108.71h32.5v-80.15l34.76,20.66c15.96,9.48,35.78,9.48,51.74,0l34.76-20.66v80.15h32.5v-108.71c0-5.84-3.14-11.23-8.21-14.12Z"/>
        <g>
          <path d="M153.61,427.63l-34.76-20.66c-15.96-9.48-35.78-9.48-51.75,0l-34.6,20.61v-80.03H0v108.62c0,5.85,3.14,11.24,8.22,14.13,5.08,2.89,11.32,2.82,16.34-.17l59.15-35.24c5.72-3.4,12.82-3.4,18.53,0l59.31,35.25c2.56,1.52,5.43,2.28,8.3,2.28s5.54-.71,8.04-2.13c5.08-2.89,8.21-8.28,8.21-14.12v-108.62h-32.5v80.06Z"/>
          <path d="M598.91,347.51v39.95c-14.6,5.06-36.85,8.15-60.55,8.15s-46.1-3.11-60.7-8.2v-39.9h-32.5v124.8h32.5v-51.1c17.72,4.55,39.21,6.83,60.7,6.83s42.86-2.27,60.55-6.79v51.06h32.5v-124.8h-32.5Z"/>
        </g>
      </g>
      <g>
        <path d="M142.88,541.72c-1.41,2.88-3.34,5.28-5.78,7.2-2.44,1.92-5.29,3.38-8.57,4.37-3.27.99-6.77,1.49-10.5,1.49h-13.38v21.61h-11.72v-56.52c0-5.92,4.8-10.72,10.72-10.72h15.79c3.91,0,7.45.53,10.61,1.59,3.17,1.06,5.86,2.58,8.07,4.56,2.21,1.99,3.91,4.36,5.09,7.11,1.18,2.76,1.78,5.86,1.78,9.32,0,3.78-.71,7.11-2.12,9.99ZM129.04,522.85c-2.63-2.02-6.17-3.04-10.6-3.04h-13.78v24.3h13.78c4.5,0,8.05-1.11,10.65-3.33s3.9-5.16,3.9-8.82c0-4.05-1.32-7.09-3.95-9.11Z"/>
        <path d="M404.76,519.82h-38.04v17.29h33.71v10.66h-33.71v17.96h38.52v10.66h-38.76c-6.34,0-11.47-5.14-11.47-11.48v-44.29c0-6.34,5.14-11.47,11.47-11.47h38.28v10.66Z"/>
        <path d="M262.35,509.11h-8.09c-14.76,0-26.77,12.01-26.77,26.77v13.66c0,14.76,12.01,26.77,26.77,26.77h8.09c14.76,0,26.77-12.01,26.77-26.77v-13.66c0-14.76-12.01-26.77-26.77-26.77ZM255.47,565.43c-8.76,0-15.89-7.13-15.89-15.89v-13.66c0-8.76,7.13-15.89,15.89-15.89h5.67c8.76,0,15.89,7.13,15.89,15.89v13.66c0,8.76-7.13,15.89-15.89,15.89h-5.67Z"/>
        <path d="M215.56,576.39l-18.15-25.46c2.37-.64,4.53-1.55,6.48-2.74,1.95-1.18,3.63-2.63,5.04-4.32,1.41-1.7,2.51-3.65,3.31-5.86.8-2.21,1.2-4.72,1.2-7.54,0-3.27-.58-6.23-1.73-8.89-1.15-2.66-2.8-4.9-4.95-6.72-2.15-1.82-4.77-3.23-7.88-4.23-3.11-.99-6.58-1.49-10.42-1.49h-19.17c-5.96,0-10.8,4.83-10.8,10.8v56.44h11.72v-56.58h17.25c4.43,0,7.87.95,10.31,2.85,2.44,1.9,3.66,4.71,3.66,8.44,0,3.47-1.25,6.24-3.76,8.3-1.77,1.45-3.97,2.38-6.59,2.8v.07c-2.24.56-4.2,2.05-5.29,4.17-1.41,2.73-1.19,5.98.6,8.5l15.24,21.44h13.93Z"/>
        <path d="M465.59,557.53c-2.75,4.77-7.88,7.99-13.77,7.99h-5.67c-8.76,0-15.89-7.13-15.89-15.89v-13.66c0-8.76,7.13-15.89,15.89-15.89h5.67c5.85,0,10.95,3.18,13.71,7.9l9.54-7.18c-4.83-7-12.91-11.6-22.04-11.6h-8.09c-14.76,0-26.77,12.01-26.77,26.77v13.66c0,14.76,12.01,26.77,26.77,26.77h8.09c9.34,0,17.58-4.81,22.37-12.08l-9.81-6.79Z"/>
        <path d="M517.22,576.39h-11.91v-56.29h-21.32v-10.95h54.56v10.95h-21.32v56.29Z"/>
        <path d="M325.01,509.15v40.48c0,8.76-7.13,15.89-15.89,15.89h-10.66v10.87h12.27c14.76,0,26.77-12,26.77-26.76v-40.48h-12.49Z"/>
      </g>
    </g>
  </g>
</svg>