<?xml version="1.0" encoding="UTF-8"?>
<svg id="Calque_2" data-name="Calque 2" xmlns="http://www.w3.org/2000/svg" viewBox="0 0 1054.93 326.87">
  <g id="Calque_1-2" data-name="Calque 1">
    <g>
      <g>
        <path d="M324.72,228.08l-33.23-55.91c-3.2-5.39-3.2-12.08,0-17.47l33.23-55.91c3.44-5.79,2.76-13.3-2.1-18.42-2.95-3.12-7.16-4.72-11.45-4.72h-59.94v175.58h59.94c4.29,0,8.5-1.6,11.45-4.72,4.86-5.12,5.55-12.64,2.1-18.43Z"/>
        <path d="M15.7,75.64c-4.29,0-8.5,1.6-11.45,4.72-4.86,5.12-5.55,12.64-2.1,18.43l33.23,55.91c3.2,5.39,3.2,12.08,0,17.47L2.15,228.08c-3.44,5.79-2.76,13.3,2.1,18.42,2.95,3.12,7.16,4.72,11.45,4.72h59.94V75.64H15.7Z"/>
        <path d="M75.64,311.17c0,4.29,1.6,8.5,4.72,11.45,5.12,4.86,12.64,5.55,18.43,2.1l55.91-33.23c5.39-3.2,12.08-3.2,17.47,0l55.91,33.23c5.79,3.44,13.3,2.76,18.42-2.1,3.12-2.95,4.72-7.16,4.72-11.45v-59.94H75.64v59.94Z"/>
        <path d="M251.23,15.7c0-4.29-1.6-8.5-4.72-11.45-5.12-4.86-12.64-5.55-18.43-2.1l-55.91,33.23c-5.39,3.2-12.08,3.2-17.47,0L98.79,2.15c-5.79-3.44-13.3-2.76-18.42,2.1-3.12,2.95-4.72,7.16-4.72,11.45v59.94h175.58V15.7Z"/>
      </g>
      <path d="M816.33,101.05c-5.25-2.99-11.7-2.93-16.89.16l-61.31,36.44c-5.91,3.51-13.25,3.51-19.16,0l-61.31-36.44c-5.19-3.09-11.64-3.15-16.89-.16-5.25,2.99-8.49,8.56-8.49,14.6v112.38h33.6v-82.85l35.93,21.35c16.49,9.8,36.99,9.8,53.49,0l35.93-21.35v82.85h33.6v-112.38c0-6.04-3.24-11.61-8.49-14.6Z"/>
      <g>
        <path d="M560.97,181.78l-35.93-21.35c-16.5-9.8-36.99-9.8-53.5,0l-35.77,21.31v-82.73h-33.6v112.3c0,6.04,3.25,11.62,8.5,14.61,5.25,2.99,11.71,2.92,16.9-.17l61.15-36.43c5.91-3.51,13.25-3.51,19.16,0l61.31,36.44c2.64,1.57,5.61,2.36,8.58,2.36s5.73-.73,8.31-2.2c5.25-2.99,8.49-8.56,8.49-14.6v-112.3h-33.6v82.77Z"/>
        <path d="M1021.33,99.01v41.3c-15.1,5.24-38.09,8.43-62.6,8.43s-47.66-3.21-62.75-8.48v-41.25h-33.6v129.02h33.6v-52.83c18.32,4.71,40.54,7.06,62.75,7.06s44.3-2.34,62.6-7.02v52.79h33.6V99.01h-33.6Z"/>
      </g>
      <g>
        <path d="M549.84,290.83c-1.46,2.98-3.45,5.46-5.97,7.45-2.52,1.99-5.47,3.49-8.86,4.52-3.38,1.03-7,1.54-10.85,1.54h-13.84v22.35h-12.11v-58.43c0-6.12,4.96-11.09,11.09-11.09h16.32c4.04,0,7.7.55,10.97,1.64,3.28,1.09,6.06,2.67,8.34,4.72,2.28,2.05,4.04,4.5,5.26,7.35,1.22,2.85,1.84,6.06,1.84,9.63,0,3.91-.73,7.35-2.19,10.33ZM535.54,271.33c-2.72-2.09-6.38-3.14-10.96-3.14h-14.25v25.12h14.25c4.65,0,8.32-1.15,11.01-3.44,2.69-2.29,4.04-5.33,4.04-9.12,0-4.19-1.36-7.33-4.09-9.42Z"/>
        <path d="M820.58,268.19h-39.32v17.88h34.85v11.02h-34.85v18.57h39.82v11.02h-40.07c-6.55,0-11.86-5.31-11.86-11.86v-45.79c0-6.55,5.31-11.86,11.86-11.86h39.58v11.02Z"/>
        <path d="M673.35,257.13h-8.36c-15.26,0-27.68,12.41-27.68,27.68v14.12c0,15.26,12.42,27.68,27.68,27.68h8.36c15.26,0,27.68-12.41,27.68-27.68v-14.12c0-15.26-12.41-27.68-27.68-27.68ZM666.24,315.35c-9.06,0-16.43-7.37-16.43-16.43v-14.12c0-9.06,7.37-16.43,16.43-16.43h5.86c9.06,0,16.42,7.37,16.42,16.43v14.12c0,9.06-7.37,16.43-16.42,16.43h-5.86Z"/>
        <path d="M624.98,326.69l-18.77-26.32c2.45-.66,4.68-1.6,6.7-2.83,2.02-1.22,3.76-2.71,5.21-4.47,1.46-1.75,2.6-3.77,3.43-6.06.83-2.28,1.24-4.88,1.24-7.79,0-3.38-.6-6.44-1.79-9.19-1.19-2.75-2.9-5.06-5.11-6.95-2.22-1.89-4.93-3.34-8.14-4.37-3.21-1.02-6.8-1.54-10.77-1.54h-19.82c-6.16,0-11.16,5-11.16,11.16v58.35h12.11v-58.49h17.83c4.58,0,8.13.98,10.66,2.94,2.52,1.96,3.79,4.87,3.79,8.73,0,3.59-1.3,6.45-3.89,8.58-1.82,1.5-4.1,2.46-6.82,2.9v.08c-2.32.57-4.34,2.12-5.47,4.31-1.46,2.82-1.23,6.18.62,8.79l15.76,22.17h14.4Z"/>
        <path d="M883.46,307.18c-2.84,4.93-8.15,8.26-14.23,8.26h-5.86c-9.06,0-16.43-7.37-16.43-16.43v-14.12c0-9.06,7.37-16.43,16.43-16.43h5.86c6.04,0,11.32,3.29,14.17,8.16l9.86-7.42c-5-7.24-13.34-11.99-22.78-11.99h-8.36c-15.26,0-27.68,12.41-27.68,27.68v14.12c0,15.26,12.42,27.68,27.68,27.68h8.36c9.66,0,18.17-4.97,23.12-12.49l-10.14-7.02Z"/>
        <path d="M936.83,326.69h-12.31v-58.19h-22.04v-11.32h56.4v11.32h-22.05v58.19Z"/>
        <path d="M738.13,257.17v41.85c0,9.06-7.37,16.43-16.42,16.43h-11.02v11.24h12.69c15.26,0,27.68-12.4,27.68-27.66v-41.85h-12.92Z"/>
      </g>
    </g>
  </g>
</svg>